<svg width="96" height="96" viewBox="0 0 96 96" fill="none" xmlns="http://www.w3.org/2000/svg">
<path d="M89.2717 60.0747L76.4082 51.6582L81.3609 42.5783C82.5555 40.311 83.1813 37.7875 83.1846 35.2249V20.8308C83.1945 16.7835 82.0223 12.8213 79.8119 9.43093C77.6014 6.04052 74.449 3.36943 70.7417 1.74566C67.0344 0.121892 62.9335 -0.383876 58.9428 0.290466C54.952 0.964808 51.2451 2.7899 48.2771 5.54164L52.6249 10.2351C54.6815 8.33363 57.2482 7.07357 60.0103 6.60941C62.7725 6.14524 65.6101 6.49716 68.1752 7.62201C70.7403 8.74686 72.9214 10.5957 74.4511 12.942C75.9809 15.2882 76.7928 18.0299 76.7872 20.8308V35.2249C76.7866 36.7171 76.4291 38.1875 75.7446 39.5135L67.9646 53.7773L85.7689 65.4273C86.9442 66.1965 87.9086 67.2471 88.5746 68.4838C89.2405 69.7205 89.5868 71.104 89.582 72.5086V83.2052H75.1879V89.6026H95.9794V72.5084C95.9858 70.0411 95.3756 67.6114 94.2041 65.4399C93.0327 63.2685 91.3372 61.4242 89.2717 60.0747Z" fill="#95DFA6"/>
<path d="M60.4834 66.4721L47.6201 58.0555L52.5727 48.9757C53.7672 46.7084 54.3931 44.1849 54.3963 41.6223V27.2282C54.3922 21.7109 52.1997 16.4205 48.3 12.5177C44.4002 8.61486 39.1115 6.4183 33.5942 6.40988C22.1355 6.40988 12.8134 15.7491 12.8134 27.2282V41.6223C12.8011 44.1838 13.4201 46.7088 14.6156 48.9742L19.5952 58.1033L6.80661 66.4721C4.74348 67.8195 3.04946 69.6607 1.87828 71.8287C0.707099 73.9967 0.0958351 76.4229 0.0999591 78.887L0 96H67.1911V78.9058C67.1975 76.4385 66.5873 74.0088 65.4159 71.8373C64.2444 69.6659 62.5489 67.8216 60.4834 66.4721ZM60.7937 89.6026H6.43456L6.49654 78.9058C6.4917 77.5012 6.83799 76.1177 7.50391 74.881C8.16983 73.6443 9.13428 72.5936 10.3096 71.8245L28.0387 60.2234L20.2317 45.9109C19.5549 44.583 19.2049 43.1127 19.2107 41.6223V27.2282C19.2107 23.4106 20.7272 19.7494 23.4267 17.05C26.1261 14.3506 29.7873 12.8341 33.6048 12.8341C37.4224 12.8341 41.0836 14.3506 43.783 17.05C46.4824 19.7494 47.9989 23.4106 47.9989 27.2282V41.6223C47.9983 43.1145 47.6409 44.5849 46.9564 45.9109L39.1764 60.1747L56.9807 71.8247C58.1559 72.5938 59.1204 73.6445 59.7863 74.8812C60.4522 76.1179 60.7985 77.5014 60.7937 78.906V89.6026Z" fill="#95DFA6"/>
</svg>
